<svg data-v-423bf9ae="" xmlns="http://www.w3.org/2000/svg" viewBox="0 0 527 90" class="iconLeft"><!----><!----><!----><g data-v-423bf9ae="" id="fc1e8a83-1f19-4ed0-b74a-a24b5b2a9a95" fill="#22C4D6" transform="matrix(4.548900827050398,0,0,4.548900827050398,170.94749969953108,-1.8764227187209244)"><path d="M1.08 13.51L1.08 3.71L7.35 3.71L7.35 5.45L2.91 5.45L2.91 7.53L6.36 7.53L6.36 9.27L2.91 9.27L2.91 11.77L7.49 11.77L7.49 13.51L1.08 13.51ZM10.28 13.65Q9.41 13.65 8.83 13.08Q8.25 12.52 8.25 11.55L8.25 11.55Q8.25 10.64 8.90 10.09Q9.56 9.53 10.46 9.30Q11.35 9.07 12.18 9.04L12.18 9.04Q12.15 8.43 11.87 8.16Q11.58 7.90 10.92 7.90L10.92 7.90Q10.46 7.90 10.02 8.02Q9.58 8.15 9.00 8.43L9.00 8.43L8.85 7.01Q10.12 6.40 11.40 6.40L11.40 6.40Q12.63 6.40 13.28 7.07Q13.93 7.74 13.93 9.21L13.93 9.21L13.93 11.10Q13.93 11.63 13.98 11.87Q14.03 12.10 14.15 12.16Q14.27 12.22 14.55 12.22L14.55 12.22L14.77 12.22L14.62 13.65L13.99 13.65Q13.41 13.65 13.02 13.43Q12.63 13.22 12.42 12.84L12.42 12.84Q12.08 13.22 11.50 13.43Q10.92 13.65 10.28 13.65L10.28 13.65ZM11.00 12.32Q11.27 12.32 11.61 12.19Q11.94 12.05 12.19 11.82L12.19 11.82L12.19 10.22Q11.35 10.26 10.71 10.58Q10.07 10.91 10.07 11.48L10.07 11.48Q10.07 11.91 10.29 12.12Q10.51 12.32 11.00 12.32L11.00 12.32ZM17.72 13.65Q17.05 13.65 16.50 13.52Q15.95 13.40 15.36 13.13L15.36 13.13L15.51 11.65Q16.10 12.00 16.61 12.17Q17.12 12.35 17.67 12.35L17.67 12.35Q18.73 12.35 18.73 11.65L18.73 11.65Q18.73 11.27 18.45 11.07Q18.17 10.86 17.44 10.58L17.44 10.58Q16.41 10.21 15.92 9.72Q15.43 9.24 15.43 8.41L15.43 8.41Q15.43 7.50 16.13 6.94Q16.83 6.37 18.02 6.37L18.02 6.37Q19.21 6.37 20.19 6.92L20.19 6.92L20.03 8.40Q19.50 8.04 19.03 7.84Q18.56 7.64 18.05 7.64L18.05 7.64Q17.60 7.64 17.35 7.83Q17.11 8.01 17.11 8.34L17.11 8.34Q17.11 8.61 17.25 8.78Q17.40 8.95 17.67 9.08Q17.93 9.21 18.55 9.45L18.55 9.45Q19.57 9.84 20.02 10.31Q20.47 10.78 20.47 11.56L20.47 11.56Q20.47 12.56 19.75 13.10Q19.04 13.65 17.72 13.65L17.72 13.65ZM22.22 16.90L23.77 13.05L20.86 6.51L22.79 6.51L24.58 11.02L26.40 6.51L28.34 6.51L23.95 16.90L22.22 16.90ZM32.59 13.51L32.59 3.71L38.63 3.71L38.63 5.45L34.38 5.45L34.38 7.53L37.66 7.53L37.66 9.27L34.38 9.27L34.38 13.51L32.59 13.51ZM40.64 13.65Q39.77 13.65 39.19 13.08Q38.61 12.52 38.61 11.55L38.61 11.55Q38.61 10.64 39.27 10.09Q39.93 9.53 40.82 9.30Q41.72 9.07 42.55 9.04L42.55 9.04Q42.52 8.43 42.23 8.16Q41.94 7.90 41.29 7.90L41.29 7.90Q40.82 7.90 40.38 8.02Q39.94 8.15 39.37 8.43L39.37 8.43L39.21 7.01Q40.49 6.40 41.76 6.40L41.76 6.40Q42.99 6.40 43.64 7.07Q44.30 7.74 44.30 9.21L44.30 9.21L44.30 11.10Q44.30 11.63 44.34 11.87Q44.39 12.10 44.51 12.16Q44.63 12.22 44.91 12.22L44.91 12.22L45.14 12.22L44.98 13.65L44.35 13.65Q43.78 13.65 43.39 13.43Q42.99 13.22 42.78 12.84L42.78 12.84Q42.45 13.22 41.87 13.43Q41.29 13.65 40.64 13.65L40.64 13.65ZM41.37 12.32Q41.64 12.32 41.97 12.19Q42.31 12.05 42.56 11.82L42.56 11.82L42.56 10.22Q41.72 10.26 41.08 10.58Q40.43 10.91 40.43 11.48L40.43 11.48Q40.43 11.91 40.66 12.12Q40.88 12.32 41.37 12.32L41.37 12.32ZM49.63 6.40Q50.93 6.40 51.60 7.27Q52.28 8.13 52.28 9.60L52.28 9.60L52.28 13.51L50.54 13.51L50.54 9.74Q50.54 8.76 50.21 8.29Q49.88 7.83 49.15 7.83L49.15 7.83Q48.36 7.83 47.84 8.43L47.84 8.43L47.84 13.51L46.10 13.51L46.10 6.51L47.73 6.51L47.75 7Q48.64 6.40 49.63 6.40L49.63 6.40ZM56.03 13.65Q55.10 13.65 54.63 13.11Q54.15 12.57 54.15 11.82L54.15 11.82L54.15 7.94L53.16 7.94L53.31 6.51L54.15 6.51L54.15 4.97L55.89 4.79L55.89 6.51L57.43 6.51L57.43 7.94L55.89 7.94L55.89 11.10Q55.89 11.66 55.95 11.88Q56.01 12.10 56.22 12.16Q56.42 12.22 56.95 12.22L56.95 12.22L57.43 12.22L57.27 13.65L56.03 13.65ZM60.07 13.65Q59.21 13.65 58.63 13.08Q58.04 12.52 58.04 11.55L58.04 11.55Q58.04 10.64 58.70 10.09Q59.36 9.53 60.26 9.30Q61.15 9.07 61.98 9.04L61.98 9.04Q61.95 8.43 61.66 8.16Q61.38 7.90 60.72 7.90L60.72 7.90Q60.26 7.90 59.81 8.02Q59.37 8.15 58.80 8.43L58.80 8.43L58.65 7.01Q59.92 6.40 61.19 6.40L61.19 6.40Q62.43 6.40 63.08 7.07Q63.73 7.74 63.73 9.21L63.73 9.21L63.73 11.10Q63.73 11.63 63.78 11.87Q63.83 12.10 63.95 12.16Q64.06 12.22 64.34 12.22L64.34 12.22L64.57 12.22L64.41 13.65L63.78 13.65Q63.21 13.65 62.82 13.43Q62.43 13.22 62.22 12.84L62.22 12.84Q61.88 13.22 61.30 13.43Q60.72 13.65 60.07 13.65L60.07 13.65ZM60.80 12.32Q61.07 12.32 61.40 12.19Q61.74 12.05 61.99 11.82L61.99 11.82L61.99 10.22Q61.15 10.26 60.51 10.58Q59.86 10.91 59.86 11.48L59.86 11.48Q59.86 11.91 60.09 12.12Q60.31 12.32 60.80 12.32L60.80 12.32ZM67.52 13.65Q66.85 13.65 66.30 13.52Q65.74 13.40 65.16 13.13L65.16 13.13L65.31 11.65Q65.90 12.00 66.41 12.17Q66.92 12.35 67.47 12.35L67.47 12.35Q68.53 12.35 68.53 11.65L68.53 11.65Q68.53 11.27 68.25 11.07Q67.97 10.86 67.24 10.58L67.24 10.58Q66.21 10.21 65.72 9.72Q65.23 9.24 65.23 8.41L65.23 8.41Q65.23 7.50 65.93 6.94Q66.63 6.37 67.82 6.37L67.82 6.37Q69.01 6.37 69.99 6.92L69.99 6.92L69.83 8.40Q69.30 8.04 68.83 7.84Q68.36 7.64 67.84 7.64L67.84 7.64Q67.40 7.64 67.15 7.83Q66.91 8.01 66.91 8.34L66.91 8.34Q66.91 8.61 67.05 8.78Q67.20 8.95 67.47 9.08Q67.73 9.21 68.35 9.45L68.35 9.45Q69.37 9.84 69.82 10.31Q70.27 10.78 70.27 11.56L70.27 11.56Q70.27 12.56 69.55 13.10Q68.84 13.65 67.52 13.65L67.52 13.65ZM72.02 16.90L73.57 13.05L70.66 6.51L72.59 6.51L74.38 11.02L76.20 6.51L78.13 6.51L73.75 16.90L72.02 16.90Z"></path></g><!----><g data-v-423bf9ae="" id="4571cc72-5efd-4ed6-9e58-dcb98803928a" transform="matrix(1.558602784521627,0,0,1.558602784521627,23.039435985750224,-10.981714932994976)" stroke="none" fill="#22C4D6"><path d="M-14.267 36.002a58.082 58.082 0 0017 18.484V17.515a58.08 58.08 0 00-17 18.487zM13.91 34.178v-4.489a1.403 1.403 0 012.806 0v4.489h7.405v-4.489a1.403 1.403 0 012.806 0v4.489h7.405v-4.489a1.403 1.403 0 012.805 0v4.489h7.405v-4.489a1.403 1.403 0 012.805 0v4.489h7.405v-4.489a1.402 1.402 0 012.804 0v4.489h5.566V14.066a57.393 57.393 0 00-27.39-6.938c-9.92 0-19.238 2.53-27.39 6.938v20.111h5.568zM85.733 36a58.096 58.096 0 00-17-18.485v36.969a58.082 58.082 0 0017-18.484zM57.557 36.982v4.488a1.402 1.402 0 01-2.804 0v-4.488h-7.405v4.488a1.402 1.402 0 01-2.805 0v-4.488h-7.405v4.488a1.402 1.402 0 11-2.805 0v-4.488h-7.405v4.488a1.403 1.403 0 01-2.806 0v-4.488h-7.405v4.488a1.403 1.403 0 01-2.806 0v-4.488H8.343v20.953a57.404 57.404 0 0027.39 6.937c9.92 0 19.236-2.53 27.39-6.938V36.982h-5.566z"></path></g><!----></svg>